# xmcd
#
# Track frame offsets:
#       150
#       18475
#       45220
#       61986
#       78697
#       102892
#       119968
#       139708
#       162315
#       180100
#       197783
#       211430
#       231992
#       251224
#       267751
#       285460
#
# Disc length: 4041 seconds
#
# Revision: 0
# Processed by: cddbd v1.5.1PL0 Copyright (c) Steve Scherf et al.
# Submitted via: WaveLab 4.01
#
DISCID=e50fc710
DTITLE=Dido - 
DYEAR=1900
DGENRE=
TTITLE0=Titel 01
TTITLE1=Titel 02
TTITLE2=Titel 03
TTITLE3=Titel 04
TTITLE4=Titel 05
TTITLE5=Titel 06
TTITLE6=Titel 07
TTITLE7=Titel 08
TTITLE8=Titel 09
TTITLE9=Titel 10
TTITLE10=Titel 11
TTITLE11=Titel 12
TTITLE12=Titel 13
TTITLE13=Titel 14
TTITLE14=Titel 15
TTITLE15=Titel 16
EXTD=
EXTT0=
EXTT1=
EXTT2=
EXTT3=
EXTT4=
EXTT5=
EXTT6=
EXTT7=
EXTT8=
EXTT9=
EXTT10=
EXTT11=
EXTT12=
EXTT13=
EXTT14=
EXTT15=
PLAYORDER=
